<?xml version="1.0" encoding="UTF-8"?>
<svg width="135px" height="28px" viewBox="0 0 135 28" version="1.1" xmlns="http://www.w3.org/2000/svg" xmlns:xlink="http://www.w3.org/1999/xlink">
    <g id="boostio-text" stroke="none" stroke-width="1" fill="none" fill-rule="evenodd">
        <path d="M11.3179599,27.5492958 L0,27.5492958 L0,0.450704225 L11.2593176,0.450704225 C16.2634588,0.450704225 19.5474264,3.11737089 19.5474264,7.21126761 C19.5474264,10.084507 17.3385672,12.657277 14.5237378,13.1079812 L14.5237378,13.258216 C18.3550334,13.6713615 20.9352937,16.2816901 20.9352937,19.8873239 C20.9352937,24.657277 17.3190198,27.5492958 11.3179599,27.5492958 Z M4.37862351,3.88732394 L4.37862351,11.9812207 L9.28502754,11.9812207 C13.0772283,11.9812207 15.1688029,10.4788732 15.1688029,7.79342723 C15.1688029,5.27699531 13.3704397,3.88732394 10.2037566,3.88732394 L4.37862351,3.88732394 Z M4.37862351,24.1126761 L10.4187783,24.1126761 C14.3673584,24.1126761 16.458933,22.5539906 16.458933,19.6244131 C16.458933,16.6948357 14.3087161,15.1924883 10.1646617,15.1924883 L4.37862351,15.1924883 L4.37862351,24.1126761 Z M32.9350678,27.9248826 C27.0512924,27.9248826 23.180902,24.0375587 23.180902,17.6713615 C23.180902,11.3239437 27.0708399,7.43661972 32.9350678,7.43661972 C38.7992957,7.43661972 42.6892336,11.3239437 42.6892336,17.6713615 C42.6892336,24.0375587 38.8188431,27.9248826 32.9350678,27.9248826 Z M32.9350678,24.5821596 C36.2581303,24.5821596 38.3887998,22.0657277 38.3887998,17.6713615 C38.3887998,13.2957746 36.2385829,10.7793427 32.9350678,10.7793427 C29.6315527,10.7793427 27.4813358,13.2957746 27.4813358,17.6713615 C27.4813358,22.0657277 29.6315527,24.5821596 32.9350678,24.5821596 Z M54.6890077,27.9248826 C48.8052323,27.9248826 44.9348419,24.0375587 44.9348419,17.6713615 C44.9348419,11.3239437 48.8247798,7.43661972 54.6890077,7.43661972 C60.5532356,7.43661972 64.4431735,11.3239437 64.4431735,17.6713615 C64.4431735,24.0375587 60.572783,27.9248826 54.6890077,27.9248826 Z M54.6890077,24.5821596 C58.0120702,24.5821596 60.1427397,22.0657277 60.1427397,17.6713615 C60.1427397,13.2957746 57.9925227,10.7793427 54.6890077,10.7793427 C51.3854926,10.7793427 49.2352757,13.2957746 49.2352757,17.6713615 C49.2352757,22.0657277 51.3854926,24.5821596 54.6890077,24.5821596 Z M67.2361097,13.3896714 C67.2361097,9.85915493 70.4809825,7.43661972 75.2896494,7.43661972 C79.8637472,7.43661972 83.0695251,9.89671362 83.2063571,13.4084507 L79.2382296,13.4084507 C79.0427553,11.6244131 77.5376035,10.5164319 75.1723649,10.5164319 C72.885316,10.5164319 71.3606167,11.5868545 71.3606167,13.1455399 C71.3606167,14.3661972 72.3770829,15.1924883 74.5077524,15.6995305 L77.9676468,16.4694836 C82.1117012,17.42723 83.6754953,18.9295775 83.6754953,21.8403756 C83.6754953,25.4460094 80.176506,27.9248826 75.13327,27.9248826 C70.2659608,27.9248826 67.0406355,25.5023474 66.7083292,21.8779343 L70.8914785,21.8779343 C71.2237847,23.7746479 72.748484,24.8262911 75.3287443,24.8262911 C77.8699097,24.8262911 79.4337038,23.8122066 79.4337038,22.2159624 C79.4337038,20.9577465 78.6518068,20.2629108 76.5015899,19.7370892 L72.8266737,18.8732394 C69.1126627,18.0093897 67.2361097,16.1502347 67.2361097,13.3896714 Z M88.090868,3.11737089 L92.3326596,3.11737089 L92.3326596,7.79342723 L96.2421448,7.79342723 L96.2421448,11.0046948 L92.3326596,11.0046948 L92.3326596,21.8967136 C92.3326596,23.6056338 93.1145566,24.3755869 94.8347301,24.3755869 C95.2647735,24.3755869 95.9489334,24.3380282 96.2225974,24.2816901 L96.2225974,27.4929577 C95.7534592,27.6056338 94.8151827,27.6807512 93.8769062,27.6807512 C89.7133044,27.6807512 88.090868,26.1596244 88.090868,22.3474178 L88.090868,11.0046948 L85.1001118,11.0046948 L85.1001118,7.79342723 L88.090868,7.79342723 L88.090868,3.11737089 Z M104.488813,27.5492958 L100.11019,27.5492958 L100.11019,0.450704225 L104.488813,0.450704225 L104.488813,27.5492958 Z M121.78594,0 C129.898122,0 135,5.38967136 135,14.0093897 C135,22.629108 129.898122,28 121.78594,28 C113.65421,28 108.57188,22.629108 108.57188,14.0093897 C108.57188,5.38967136 113.65421,0 121.78594,0 Z M121.78594,3.69953052 C116.429945,3.69953052 113.04824,7.68075117 113.04824,14.0093897 C113.04824,20.3192488 116.429945,24.3004695 121.78594,24.3004695 C127.141935,24.3004695 130.504092,20.3192488 130.504092,14.0093897 C130.504092,7.68075117 127.141935,3.69953052 121.78594,3.69953052 Z" id="BoostIO" fill="#212121"></path>
    </g>
</svg>